<svg width="437.01" height="254" xmlns="http://www.w3.org/2000/svg">
 <defs>
  <style>.a{fill:#ed1b2e;}.b{fill:#68737a;}.c{fill:none;}</style>
 </defs>
 <title>pulse-logo</title>
 <g>
  <title>background</title>
  <rect fill="none" id="canvas_background" height="602" width="802" y="-1" x="-1"/>
 </g>
 <g>
  <title>Layer 1</title>
  <path id="svg_1" d="m77.31,84.63c-21.16,0 -37.12,15.9 -37.12,37l0,60.37a16.2,16.2 0 0 0 0.1,2.18c0.17,1.61 1.16,2.15 6.31,2.15s6.09,-0.54 6.26,-2.15c0.07,-0.67 0.09,-1.55 0.1,-2.18l0,-33.81a33.61,33.61 0 0 0 25.04,10.71c21.1,0 36.41,-15.68 36.41,-37.28a36.61,36.61 0 0 0 -36.23,-37l-0.87,0.01zm0,62.54c-14,0 -24.61,-11 -24.61,-25.55c0,-14.39 10.58,-25.24 24.61,-25.24s24.56,11.12 24.56,25.39c0,14.06 -10.33,25.4 -24.56,25.4zm106.47,-22.51c0,20.27 -16.14,21.84 -21.09,21.84c-13.63,0 -21.44,-8 -21.44,-22.07l0,-25.84c0,-7.1 -1.9,-11.87 -6.76,-17a16.59,16.59 0 0 0 -7.2,-4.51c-1.59,-0.4 -1.81,-0.28 -3.3,0.93c-0.28,0.22 -6.78,5.59 -6.78,5.59c-0.22,0.18 -0.86,0.74 -0.73,1.39s1,1 1.67,1.2c5.09,1.79 6.57,3.48 8.09,5.23c1.61,2 2.36,4.85 2.36,9.12l0,23.92c0,21.15 13.06,34.29 34.09,34.29c20.81,0 33.74,-13.05 33.74,-34.06l0.06,-33.26a16.2,16.2 0 0 0 -0.1,-2.18c-0.17,-1.62 -1.16,-2.15 -6.31,-2.15s-6.09,0.53 -6.26,2.15c-0.07,0.67 -0.09,1.55 -0.1,2.18l0.06,33.23zm35,29.17c-5.23,-4.86 -6.92,-9.76 -6.92,-16.85l0,-71.89c0,-4.26 -0.75,-7.16 -2.37,-9.12c-1.51,-1.74 -3,-3.43 -8.09,-5.23c-0.71,-0.24 -1.53,-0.51 -1.66,-1.19s0.51,-1.22 0.72,-1.4c0,0 6.51,-5.37 6.79,-5.59c1.49,-1.21 1.71,-1.33 3.29,-0.92a16.44,16.44 0 0 1 7.2,4.51c4.87,5.15 6.76,9.92 6.76,17l0,74.77c0,5.34 3.05,7.08 5,8s4.51,1.26 10.74,1.2c1.57,0 1.78,0.59 1.38,1.64l-2.94,7.37c-0.74,1.77 -1.49,2.32 -2.81,2.51c-6.71,1 -12.87,-0.91 -17,-4.81l-0.09,0zm85.69,-52.4c-0.84,1.5 -4.49,4 -7.59,4.49c-1.67,0.22 -1.92,0 -3.43,-1.64c-6.15,-6.18 -9.29,-8 -18,-8c-0.82,0 -13.45,0.11 -13.57,8.88c0,6.89 8.54,8.93 16.13,10.21c8.93,1.59 27.51,4.89 27.51,22.23a18,18 0 0 1 -5.5,13.24c-5.2,5.14 -13,8.09 -23.33,8.09c-11,-0.11 -21.22,-2.62 -30.1,-12.76c-1.59,-1.82 -1.56,-2.5 -1.09,-3.2a14.21,14.21 0 0 1 7.74,-5.26c2.26,-0.53 2.06,-0.49 3.39,0.95c7.1,7.28 15,9.15 24.46,8.3c6.11,-0.55 12.25,-3.75 12.18,-9.74c-0.06,-5.48 -5.62,-8.75 -18.59,-10.92c-22.47,-3.77 -25.42,-15.09 -25.18,-21.5a18.55,18.55 0 0 1 9,-15.53c4.67,-3 11,-4.61 17.8,-4.61c11.14,0 21.33,3.78 28,14.19c0.86,1.24 0.85,1.46 0.21,2.58l-0.04,0zm75.28,46.7l0,0c1,-1.07 1.68,-1.62 0.19,-3.78a14.06,14.06 0 0 0 -5.8,-4.68c-1.39,-0.58 -1.7,-0.32 -3.28,0.89l0,0a27.93,27.93 0 0 1 -18.86,6.66c-12,0 -21.65,-8.54 -23.58,-20.84l50.76,0a5.54,5.54 0 0 0 5.56,-5.52l0,0c0,-17.46 -10.6,-36.26 -33.88,-36.26c-22.81,0 -34.75,18.61 -34.75,37c0,10.65 3.74,20.27 10.55,27.09c6.27,6.3 16,10.21 25.45,10.21c14,0.1 21.79,-4.77 27.65,-10.77l-0.01,0zm-7.16,-32.76l-43.85,0c2.33,-11.46 11.26,-19.12 22.26,-19.12c4.37,0 18.78,1.39 21.63,19.12l-0.04,0zm23.14,-17.15c0.93,-0.45 7.4,-5.22 7.4,-5.22c1,-0.79 1.11,-1 0.75,-2.17a36.42,36.42 0 0 0 -8.88,-14.57a34.1,34.1 0 0 0 -9.36,-6.93c-1.34,-0.62 -1.67,-0.52 -2.66,0.16c-1.18,0.83 -6.48,5.43 -6.71,5.62c-1.66,1.4 -1,2.24 0.33,2.83c7.38,3.24 13.28,9.49 16.64,19c0.62,1.86 1.71,1.77 2.48,1.28l0.01,0z" class="a"/>
  <path id="svg_2" d="m124.4,202.64a7.65,7.65 0 0 1 5.2,-2a6.66,6.66 0 0 1 4.58,1.62c1.88,1.66 2.75,4.44 2.75,7.44c0,4.94 -2.67,9.13 -7.55,9.13a6.72,6.72 0 0 1 -5.19,-2.24l-0.08,1.3c0,0.44 -0.21,0.58 -0.72,0.58l-1.39,0c-0.47,0 -0.69,-0.18 -0.69,-0.69l0,-24c0,-0.47 0.11,-0.68 0.54,-0.75l1.81,-0.26c0.51,-0.07 0.72,0.15 0.72,0.62l0.02,9.25zm0,2.64l0,8.63a5.51,5.51 0 0 0 4.55,2.38c3.25,0 4.77,-3 4.77,-6.5c0,-3.82 -1.34,-6.68 -4.73,-6.68a6.82,6.82 0 0 0 -4.59,2.17zm26.76,-3.72c0.14,-0.43 0.39,-0.58 0.9,-0.58l1.73,0c0.58,0 0.61,0.33 0.47,0.73l-7,18.8c-1.59,4.26 -3.39,5.85 -7.29,5.85a6.74,6.74 0 0 1 -1.66,-0.21c-0.29,-0.08 -0.51,-0.22 -0.43,-0.65l0.25,-1.45c0.07,-0.36 0.25,-0.5 0.58,-0.47a8.57,8.57 0 0 0 1.37,0.15a3.84,3.84 0 0 0 3.92,-2.73l0.91,-2.27l-6.47,-17.08c-0.14,-0.39 0.08,-0.65 0.51,-0.65l2.05,0c0.54,0 0.76,0.15 0.86,0.51l4.7,13.46l4.6,-13.41zm20.18,7.44l-2.13,0l0,8.7c0,0.47 -0.22,0.72 -0.69,0.72l-2,0c-0.5,0 -0.72,-0.18 -0.72,-0.72l0,-23.32c0,-0.62 0.29,-0.83 0.76,-0.83l4.66,0c5.41,0 9.46,2.06 9.46,7.58s-3.85,7.87 -9.34,7.87zm-2.13,-2.57l2.24,0c3.5,0 5.88,-1.22 5.88,-5.23s-2.6,-5.09 -6.13,-5.09l-2,0l0.01,10.32zm18.13,11.23a0.66,0.66 0 0 1 -0.55,0.76l-1.79,0c-0.47,0 -0.72,-0.25 -0.72,-0.76l0,-15.95c0,-0.51 0.18,-0.73 0.68,-0.73l1.59,0c0.44,0 0.69,0.18 0.69,0.65l0,1.23a5,5 0 0 1 4.23,-2.27c0.79,0 1.33,0.1 1.26,0.65l-0.25,1.62a0.46,0.46 0 0 1 -0.49,0.43l0,0a9.87,9.87 0 0 0 -1,-0.1a4.71,4.71 0 0 0 -3.61,2.16l-0.04,12.31zm19.28,-15.95a0.64,0.64 0 0 1 0.54,-0.73l1.84,0c0.47,0 0.69,0.22 0.69,0.73l0,16c0,0.5 -0.19,0.72 -0.69,0.72l-1.59,0c-0.43,0 -0.68,-0.18 -0.68,-0.65l0,-1.15a8.75,8.75 0 0 1 -5.7,2.16c-4.16,0 -5.67,-2.67 -5.67,-6.53l0,-10.55a0.64,0.64 0 0 1 0.57,-0.71l1.73,0c0.47,0 0.69,0.22 0.69,0.73l0,10.07c0,2.56 0.57,4.37 3.46,4.37a8,8 0 0 0 4.77,-2.13l0.04,-12.33zm14.44,17.07c-5.2,0 -7.44,-4.26 -7.44,-9c0,-5.31 3.11,-9.2 7.87,-9.2a6.46,6.46 0 0 1 4.7,2l0,-8.81c0,-0.47 0.1,-0.68 0.54,-0.75l1.8,-0.26c0.51,-0.07 0.72,0.15 0.72,0.62l0,24.29c0,0.51 -0.25,0.76 -0.72,0.76l-1.37,0c-0.54,0 -0.76,-0.22 -0.76,-0.72l0,-1.27a7.21,7.21 0 0 1 -5.34,2.34zm5.13,-13.25a5.11,5.11 0 0 0 -4.26,-2.49c-3.25,0 -5.13,2.64 -5.13,6.61s1.7,6.68 4.84,6.68a6.1,6.1 0 0 0 4.55,-2.39l0,-8.41zm10.14,4.62c0.11,3.4 2,6.1 5.56,6.1a11.56,11.56 0 0 0 4.44,-0.75c0.33,-0.15 0.65,-0.15 0.8,0.25l0.43,1.19c0.15,0.4 0,0.58 -0.36,0.79a13.94,13.94 0 0 1 -5.7,1.05c-5.49,0 -8.38,-3.68 -8.38,-9.1s3.1,-9.09 8.3,-9.09c4.7,0 7.08,3.46 7.08,7.65l0,0.9c0,0.83 -0.14,1 -1.08,1l-11.09,0.01zm9.14,-2.09l0,-0.65c0,-2.46 -1.38,-4.44 -4.19,-4.44c-3,0 -4.62,2.35 -4.87,5.09l9.06,0zm9.71,9.6c0,0.51 -0.25,0.76 -0.72,0.76l-1.62,0a0.66,0.66 0 0 1 -0.73,-0.76l0,-15.95c0,-0.51 0.18,-0.73 0.69,-0.73l1.59,0c0.43,0 0.68,0.18 0.68,0.65l0,1.12a9.27,9.27 0 0 1 5.92,-2.16c4.15,0 5.74,2.52 5.74,6.46l0,10.61c0,0.51 -0.25,0.76 -0.72,0.76l-1.63,0c-0.47,0 -0.72,-0.25 -0.72,-0.76l0,-10.11c0,-2.56 -0.65,-4.4 -3.54,-4.4a8.23,8.23 0 0 0 -5,2.09l0.06,12.42zm17.12,-20.76c0,-0.47 0.11,-0.68 0.54,-0.75l1.8,-0.26c0.51,-0.07 0.73,0.15 0.73,0.62l0,4.49l4.22,0c0.4,0 0.54,0.15 0.54,0.54l0,1.09c0,0.4 -0.14,0.54 -0.54,0.54l-4.22,0l0,9.71c0,2.35 0.43,3.5 2.56,3.5a6.81,6.81 0 0 0 2.2,-0.39c0.36,-0.15 0.65,-0.08 0.76,0.32l0.32,1.08c0.11,0.4 0,0.58 -0.47,0.76a10.17,10.17 0 0 1 -3.39,0.65c-4.19,0 -5,-2 -5,-5.7l0,-9.93l-2,0c-0.4,0 -0.54,-0.14 -0.54,-0.54l0,-1.09c0,-0.39 0.14,-0.54 0.54,-0.54l2,0l-0.05,-4.1zm15.52,-0.18a1.72,1.72 0 0 1 -1.7,1.74l-0.12,0a1.75,1.75 0 0 1 -1.88,-1.62s0,-0.08 0,-0.12a1.72,1.72 0 0 1 1.71,-1.73l0.13,0a1.75,1.75 0 0 1 1.88,1.62s0,0.08 0,0.11l-0.02,0zm-0.32,20.94a0.66,0.66 0 0 1 -0.55,0.76l-1.8,0c-0.47,0 -0.72,-0.25 -0.72,-0.76l0,-15.95a0.64,0.64 0 0 1 0.57,-0.71l1.84,0c0.47,0 0.69,0.22 0.69,0.73l-0.03,15.93zm16.68,-1.91a6.62,6.62 0 0 1 -5.42,3c-5,0 -7.18,-4.22 -7.18,-8.77c0,-6 3.57,-9.42 7.69,-9.42a6.11,6.11 0 0 1 4.83,2.2l0,-1.16c0,-0.43 0.22,-0.65 0.69,-0.65l1.59,0c0.47,0 0.68,0.22 0.68,0.69l0,12.66c0,1.34 0,1.95 0.8,1.95l0.14,0c0.43,0 0.61,0.15 0.61,0.55l0,1.08c0,0.4 -0.18,0.54 -0.61,0.54l-1.4,0a2.37,2.37 0 0 1 -2.35,-2.67l-0.07,0zm-0.18,-10.11a5,5 0 0 0 -4.37,-2.6c-2.77,0 -4.87,2.46 -4.87,6.75c0,4 1.84,6.43 4.44,6.43a5.41,5.41 0 0 0 4.8,-3.65l0,-6.93zm11.27,12c0,0.51 -0.25,0.76 -0.72,0.76l-1.55,0c-0.47,0 -0.72,-0.25 -0.72,-0.76l0,-23.9c0,-0.47 0.11,-0.68 0.54,-0.75l1.81,-0.26c0.5,-0.07 0.72,0.15 0.72,0.62l-0.08,24.29z" class="b"/>
  <rect id="svg_3" height="254" width="437.01" class="c"/>
  <rect id="svg_4" height="40" width="206" y="188.05217" x="115.57" stroke-opacity="null" stroke-width="null" stroke="null" fill="#ffffff"/>
 </g>
</svg>