<svg width="360" height="270" viewBox="0 0 360 270" fill="none" xmlns="http://www.w3.org/2000/svg">
<g opacity="0.2">
<path fill-rule="evenodd" clip-rule="evenodd" d="M0 149.086C0 180.178 11.209 208.512 29.6543 229.925C50.8151 254.498 81.5004 269.948 115.705 270C130.653 270.022 144.947 267.085 158.076 261.723C164.864 258.949 172.462 259.267 179.037 262.553C186.749 266.403 195.386 268.561 204.505 268.561C208.272 268.561 211.961 268.19 215.53 267.486C225.715 265.483 234.985 260.744 242.597 254.031C247.381 249.811 253.508 247.689 259.77 247.697H259.876C280.568 247.697 299.788 241.148 315.746 229.925C330.012 219.905 341.661 206.153 349.423 190.006C356.19 175.936 360 160.041 360 143.218C360 85.5204 315.169 38.74 259.876 38.74C254.239 38.74 248.717 39.2368 243.329 40.1638C229.063 16.065 203.517 0 174.374 0C162.07 0 150.405 2.86326 139.964 7.99592C130.034 12.8612 121.206 19.7747 113.984 28.2C89.461 28.608 66.786 36.9675 48.2272 50.9186C19.0136 72.8664 0 108.662 0 149.086Z" fill="url(#paint0_linear_302_10765)"/>
</g>
<g clip-path="url(#clip0_302_10765)">
<g opacity="0.24">
<g opacity="0.24">
<g opacity="0.24">
<path opacity="0.24" fill-rule="evenodd" clip-rule="evenodd" d="M0 149.086C0 180.178 11.209 208.512 29.6543 229.925C50.8151 254.498 81.5004 269.948 115.705 270C130.653 270.022 144.947 267.085 158.076 261.723C164.864 258.949 172.462 259.267 179.037 262.553C186.749 266.403 195.386 268.561 204.505 268.561C208.272 268.561 211.961 268.19 215.53 267.486C225.715 265.483 234.985 260.744 242.597 254.031C247.381 249.811 253.508 247.689 259.77 247.697H259.876C280.568 247.697 299.788 241.148 315.746 229.925C330.011 219.905 341.661 206.153 349.423 190.006C356.19 175.936 360 160.041 360 143.218C360 85.5204 315.169 38.74 259.876 38.74C254.239 38.74 248.717 39.2368 243.329 40.1638C229.063 16.065 203.517 0 174.374 0C162.07 0 150.405 2.86327 139.964 7.99592C130.034 12.8612 121.206 19.7747 113.984 28.2C89.461 28.608 66.786 36.9675 48.2272 50.9186C19.0136 72.8664 0 108.662 0 149.086Z" fill="url(#paint1_linear_302_10765)"/>
</g>
</g>
</g>
<path opacity="0.545118" d="M203.947 56.7283C202.057 56.7283 200.167 56.0103 198.729 54.5739C195.851 51.7009 195.851 47.0267 198.729 44.1543C201.605 41.2824 206.288 41.2814 209.165 44.1543C212.042 47.0272 212.042 51.7014 209.165 54.5739C207.726 56.0103 205.837 56.7283 203.947 56.7283ZM203.947 47.0786C203.361 47.0786 202.774 47.3011 202.327 47.7472C201.434 48.6385 201.434 50.0892 202.327 50.9809C203.221 51.8722 204.672 51.8727 205.566 50.9809C206.459 50.0897 206.459 48.639 205.566 47.7472C205.12 47.3016 204.533 47.0786 203.947 47.0786Z" fill="#C4CDD5"/>
<path opacity="0.545118" d="M145.93 228.75C144.041 228.75 142.15 228.031 140.712 226.595C137.834 223.722 137.834 219.048 140.712 216.176C143.589 213.303 148.272 213.303 151.149 216.176C154.026 219.049 154.026 223.723 151.149 226.595C149.71 228.032 147.82 228.75 145.93 228.75ZM145.93 219.1C145.344 219.1 144.757 219.323 144.31 219.769C143.418 220.66 143.418 222.111 144.31 223.002C145.204 223.894 146.656 223.894 147.55 223.002C148.443 222.111 148.443 220.66 147.55 219.769C147.103 219.323 146.517 219.1 145.93 219.1Z" fill="#C4CDD5"/>
<path d="M274.955 194.049C274.304 194.049 273.652 193.801 273.156 193.305L270.12 190.275L267.084 193.305C266.091 194.297 264.479 194.297 263.486 193.305C262.492 192.313 262.492 190.704 263.486 189.712L268.321 184.885C269.314 183.893 270.926 183.893 271.919 184.885L276.754 189.712C277.748 190.705 277.748 192.313 276.754 193.305C276.258 193.801 275.606 194.049 274.955 194.049Z" fill="#DFE3E8"/>
<path d="M95.4649 184.369C94.8139 184.369 94.162 184.121 93.6657 183.625L90.6298 180.595L87.5938 183.625C86.6009 184.617 84.9885 184.617 83.9955 183.625C83.0015 182.633 83.0015 181.024 83.9955 180.032L88.8306 175.205C89.8236 174.213 91.436 174.213 92.4289 175.205L97.2641 180.032C98.2581 181.025 98.2581 182.634 97.2641 183.625C96.7673 184.121 96.1158 184.369 95.4649 184.369Z" fill="#C4CDD5"/>
<g filter="url(#filter0_d_302_10765)">
<mask id="mask0_302_10765" style="mask-type:alpha" maskUnits="userSpaceOnUse" x="106" y="74" width="150" height="122">
<path d="M244.968 74.8247H116.886C111.16 74.8247 106.518 79.4669 106.518 85.1934V185.389C106.518 191.116 111.16 195.758 116.886 195.758H244.968C250.695 195.758 255.337 191.116 255.337 185.389V85.1934C255.337 79.4669 250.695 74.8247 244.968 74.8247Z" fill="white"/>
</mask>
<g mask="url(#mask0_302_10765)">
<path d="M244.968 74.8247H116.886C111.16 74.8247 106.518 79.4669 106.518 85.1934V185.389C106.518 191.116 111.16 195.758 116.886 195.758H244.968C250.695 195.758 255.337 191.116 255.337 185.389V85.1934C255.337 79.4669 250.695 74.8247 244.968 74.8247Z" fill="#DFE3E8" stroke="#919EAB" stroke-opacity="0.48" stroke-width="1.72811"/>
<path opacity="0.32" d="M250.977 74.8247C253.419 74.8247 255.337 76.3448 255.337 78.2799V109.377H106.518V78.2799C106.518 76.3448 108.436 74.8247 110.878 74.8247H250.977ZM129.014 87.7818C126.591 87.7818 124.687 89.6819 124.687 92.1009C124.687 94.5192 126.591 96.4199 129.014 96.4199C131.436 96.4199 133.34 94.5192 133.34 92.1009C133.34 89.6819 131.436 87.7818 129.014 87.7818ZM146.318 87.7818C143.895 87.7818 141.992 89.6819 141.992 92.1009C141.992 94.5192 143.895 96.4199 146.318 96.4199C148.741 96.4199 150.644 94.5192 150.644 92.1009C150.644 89.6819 148.741 87.7818 146.318 87.7818ZM163.623 87.7818C161.2 87.7818 159.297 89.6819 159.297 92.1009C159.297 94.5192 161.2 96.4199 163.623 96.4199C166.046 96.4199 167.949 94.5192 167.949 92.1009C167.949 89.6819 166.046 87.7818 163.623 87.7818Z" fill="#919EAB"/>
<path d="M232.842 121.47H189.58C187.189 121.47 185.254 123.402 185.254 125.789V177.618C185.254 180.005 187.189 181.937 189.58 181.937H232.842C235.233 181.937 237.168 180.005 237.168 177.618V125.789C237.168 123.402 235.233 121.47 232.842 121.47Z" fill="#919EAB" fill-opacity="0.48" stroke="#919EAB" stroke-width="1.38249" stroke-dasharray="2.3 2.3"/>
<path opacity="0.72" d="M129.014 130.108H146.318C148.709 130.108 150.644 128.177 150.644 125.789C150.644 123.402 148.709 121.47 146.318 121.47H129.014C126.622 121.47 124.688 123.402 124.688 125.789C124.688 128.177 126.622 130.108 129.014 130.108Z" stroke="#919EAB" stroke-width="1.38249" stroke-dasharray="2.3 2.3"/>
<path opacity="0.72" d="M172.275 138.747H129.014C126.622 138.747 124.688 140.678 124.688 143.066C124.688 145.453 126.622 147.385 129.014 147.385H172.275C174.666 147.385 176.601 145.453 176.601 143.066C176.601 140.678 174.666 138.747 172.275 138.747Z" stroke="#919EAB" stroke-width="1.38249" stroke-dasharray="2.3 2.3"/>
<path opacity="0.72" d="M172.275 156.022H129.014C126.622 156.022 124.688 157.954 124.688 160.341C124.688 162.729 126.622 164.661 129.014 164.661H172.275C174.666 164.661 176.601 162.729 176.601 160.341C176.601 157.954 174.666 156.022 172.275 156.022Z" stroke="#919EAB" stroke-width="1.38249" stroke-dasharray="2.3 2.3"/>
<path opacity="0.72" d="M172.275 173.299H129.014C126.622 173.299 124.688 175.231 124.688 177.618C124.688 180.005 126.622 181.937 129.014 181.937H172.275C174.666 181.937 176.601 180.005 176.601 177.618C176.601 175.231 174.666 173.299 172.275 173.299Z" stroke="#919EAB" stroke-width="1.38249" stroke-dasharray="2.3 2.3"/>
</g>
</g>
</g>
<defs>
<filter id="filter0_d_302_10765" x="92.5176" y="60.8247" width="204.82" height="176.933" filterUnits="userSpaceOnUse" color-interpolation-filters="sRGB">
<feFlood flood-opacity="0" result="BackgroundImageFix"/>
<feColorMatrix in="SourceAlpha" type="matrix" values="0 0 0 0 0 0 0 0 0 0 0 0 0 0 0 0 0 0 127 0" result="hardAlpha"/>
<feOffset dx="14" dy="14"/>
<feGaussianBlur stdDeviation="14"/>
<feColorMatrix type="matrix" values="0 0 0 0 0.270588 0 0 0 0 0.309804 0 0 0 0 0.356863 0 0 0 0.24 0"/>
<feBlend mode="normal" in2="BackgroundImageFix" result="effect1_dropShadow_302_10765"/>
<feBlend mode="normal" in="SourceGraphic" in2="effect1_dropShadow_302_10765" result="shape"/>
</filter>
<linearGradient id="paint0_linear_302_10765" x1="246.608" y1="318.024" x2="379.044" y2="19.5359" gradientUnits="userSpaceOnUse">
<stop stop-color="#919EAB"/>
<stop offset="1" stop-color="#919EAB" stop-opacity="0.01"/>
</linearGradient>
<linearGradient id="paint1_linear_302_10765" x1="70.1853" y1="193.92" x2="222.628" y2="0.657914" gradientUnits="userSpaceOnUse">
<stop stop-color="#00AB55"/>
<stop offset="1" stop-color="#00AB55" stop-opacity="0"/>
</linearGradient>
<clipPath id="clip0_302_10765">
<rect width="360" height="270" fill="white"/>
</clipPath>
</defs>
</svg>
