<svg width="1114" height="250" viewBox="0 0 1114 250" fill="none" xmlns="http://www.w3.org/2000/svg">
<path d="M139.994 1.43185L58.3912 48.5454C45.7345 55.8527 37.9415 69.3608 37.951 83.9755L37.9679 109.902L119.595 62.7586C132.258 55.4452 140.05 41.925 140.03 27.302L139.994 1.43185Z" fill="url(#paint0_linear_823_3784)"/>
<path d="M241.985 140.098L160.382 187.211C147.726 194.519 139.933 208.027 139.942 222.641L139.959 248.568L221.586 201.425C234.249 194.111 242.041 180.591 242.021 165.968L241.985 140.098Z" fill="url(#paint1_linear_823_3784)"/>
<path d="M184.443 74.1643L102.84 121.278C90.1835 128.585 82.3905 142.093 82.4 156.708L82.4168 182.634L164.044 135.491C176.707 128.178 184.499 114.657 184.479 100.034L184.443 74.1643Z" fill="url(#paint2_linear_823_3784)"/>
<path d="M37.9056 153.486L37.9249 208.36L198.923 115.408L199.165 145.961L226.726 130.049C236.218 124.569 242.062 114.439 242.056 103.479L242.023 40.9486L80.91 133.967L80.8491 105.076L58.3458 118.068C45.6929 125.373 37.9004 138.876 37.9056 153.486Z" fill="url(#paint3_linear_823_3784)"/>
<path d="M242.093 55.1458V40.7744L81.0402 133.924V103.229L58.1189 116.679C45.6114 124.019 37.9285 137.435 37.9285 151.937V208.345L211.415 108.261C230.397 97.3102 242.093 77.0609 242.093 55.1458Z" fill="url(#paint4_linear_823_3784)"/>
<rect x="0.856445" y="0.5" width="279" height="249" stroke="white"/>
<rect x="280.856" y="0.508789" width="39" height="248.982" stroke="white"/>
<rect x="320.856" y="0.508789" width="792.287" height="248.982" stroke="white"/>
<rect x="320.856" y="45.5" width="792.287" height="159" stroke="white"/>
<path d="M339.289 127.839L321.845 140.153C324.467 145.739 328.115 150.927 332.79 155.715C337.464 160.504 342.937 164.323 349.208 167.174C355.592 169.91 362.433 171.278 369.73 171.278C375.203 171.278 380.39 170.423 385.293 168.713C390.309 167.117 394.813 164.779 398.803 161.701C402.794 158.509 405.929 154.632 408.209 150.072C410.489 145.511 411.63 140.324 411.63 134.509C411.63 129.379 410.775 124.875 409.064 120.999C407.468 117.008 405.188 113.588 402.224 110.738C399.373 107.773 396.124 105.265 392.475 103.213C388.941 101.16 385.236 99.4503 381.359 98.0821C375.317 96.0299 370.3 94.0347 366.31 92.0965C362.319 90.0442 359.355 87.935 357.417 85.7688C355.478 83.4885 354.509 80.8662 354.509 77.9019C354.509 74.9376 355.706 72.3723 358.101 70.2061C360.495 67.9258 364.086 66.7857 368.875 66.7857C372.523 66.7857 375.773 67.5268 378.623 69.0089C381.473 70.3771 383.982 72.2583 386.148 74.6525C388.428 76.9328 390.366 79.4981 391.962 82.3484L411.117 71.7452C409.064 67.5268 406.157 63.4793 402.395 59.6029C398.746 55.6125 394.129 52.3631 388.542 49.8548C383.069 47.2325 376.514 45.9214 368.875 45.9214C361.464 45.9214 354.737 47.2895 348.695 50.0258C342.766 52.6481 338.035 56.4675 334.5 61.4841C331.08 66.3866 329.37 72.2583 329.37 79.099C329.37 84.7997 330.453 89.7022 332.619 93.8067C334.785 97.7971 337.521 101.217 340.828 104.068C344.134 106.804 347.612 109.084 351.26 110.909C355.022 112.619 358.329 113.987 361.179 115.013C366.538 117.065 371.041 119.003 374.69 120.828C378.452 122.538 381.245 124.533 383.069 126.813C385.008 129.094 385.977 132.115 385.977 135.877C385.977 140.21 384.438 143.63 381.359 146.138C378.281 148.647 374.29 149.901 369.388 149.901C365.169 149.901 361.236 148.989 357.588 147.165C353.939 145.34 350.576 142.775 347.498 139.469C344.533 136.162 341.797 132.286 339.289 127.839Z" fill="black"/>
<path d="M504.25 92.6519H482.129L458.368 152.298L468.856 152.626L444.604 92.6519H421.008L452.306 160.491L433.297 204.079H455.091L504.25 92.6519Z" fill="black"/>
<path d="M628.473 119.853C628.473 113.736 627.599 108.547 625.852 104.286C624.213 99.9165 621.646 96.6393 618.15 94.4544C614.654 92.1604 610.121 91.0133 604.549 91.0133C599.415 91.0133 594.827 92.1057 590.785 94.2906C586.852 96.4754 583.52 99.698 580.789 103.958C579.151 99.698 576.529 96.4754 572.924 94.2906C569.319 92.1057 564.731 91.0133 559.159 91.0133C554.134 91.0133 549.819 92.1057 546.214 94.2906C542.609 96.4754 539.714 99.6434 537.53 103.795V92.6519H517.047V168.029H537.53V122.147C537.53 118.87 538.076 116.084 539.168 113.79C540.261 111.387 541.79 109.639 543.756 108.547C545.723 107.345 548.017 106.744 550.639 106.744C554.571 106.744 557.412 108.055 559.159 110.677C560.907 113.189 561.781 117.013 561.781 122.147V168.029H582.919V122.147C582.919 118.87 583.466 116.084 584.558 113.79C585.651 111.387 587.18 109.639 589.146 108.547C591.113 107.345 593.407 106.744 596.029 106.744C599.961 106.744 602.802 108.055 604.549 110.677C606.297 113.189 607.171 117.013 607.171 122.147V168.029H628.473V119.853Z" fill="black"/>
<path d="M673.473 204.079V92.6519H652.171V204.079H673.473ZM735.413 130.34C735.413 121.71 733.72 114.446 730.333 108.547C726.947 102.538 722.468 98.0048 716.897 94.946C711.434 91.8873 705.535 90.3579 699.199 90.3579C692.754 90.3579 687.128 91.9965 682.321 95.2737C677.624 98.551 673.964 103.194 671.343 109.202C668.83 115.101 667.574 122.147 667.574 130.34C667.574 138.424 668.83 145.47 671.343 151.479C673.964 157.487 677.624 162.13 682.321 165.407C687.128 168.684 692.754 170.323 699.199 170.323C705.535 170.323 711.434 168.794 716.897 165.735C722.468 162.676 726.947 158.142 730.333 152.134C733.72 146.126 735.413 138.861 735.413 130.34ZM713.455 130.34C713.455 134.819 712.527 138.643 710.67 141.811C708.813 144.979 706.3 147.382 703.132 149.021C700.073 150.659 696.687 151.479 692.973 151.479C689.805 151.479 686.691 150.714 683.632 149.185C680.683 147.546 678.225 145.143 676.259 141.975C674.401 138.807 673.473 134.929 673.473 130.34C673.473 125.752 674.401 121.874 676.259 118.706C678.225 115.538 680.683 113.189 683.632 111.66C686.691 110.021 689.805 109.202 692.973 109.202C696.687 109.202 700.073 110.021 703.132 111.66C706.3 113.299 708.813 115.702 710.67 118.87C712.527 122.038 713.455 125.861 713.455 130.34Z" fill="black"/>
<path d="M775.815 46.6291H754.513V168.029H775.815V46.6291ZM803.18 122.147V168.029H824.483V119.034C824.483 112.807 823.554 107.563 821.697 103.303C819.84 98.9333 817 95.6561 813.176 93.4713C809.353 91.2864 804.491 90.194 798.592 90.194C792.693 90.194 787.723 91.6141 783.681 94.4544C779.639 97.2947 776.58 101.118 774.505 105.925C772.538 110.731 771.555 116.139 771.555 122.147H775.815C775.815 118.979 776.416 116.248 777.618 113.954C778.82 111.66 780.567 109.912 782.862 108.71C785.156 107.4 787.777 106.744 790.727 106.744C795.206 106.744 798.374 108.055 800.231 110.677C802.197 113.299 803.18 117.122 803.18 122.147Z" fill="black"/>
<path d="M843.603 130.34C843.603 138.097 845.406 144.979 849.011 150.987C852.725 156.886 857.696 161.474 863.922 164.752C870.258 168.029 877.414 169.667 885.388 169.667C893.363 169.667 900.464 168.029 906.691 164.752C913.027 161.474 917.997 156.886 921.602 150.987C925.316 144.979 927.173 138.097 927.173 130.34C927.173 122.475 925.316 115.593 921.602 109.694C917.997 103.795 913.027 99.2064 906.691 95.9292C900.464 92.6519 893.363 91.0133 885.388 91.0133C877.414 91.0133 870.258 92.6519 863.922 95.9292C857.696 99.2064 852.725 103.795 849.011 109.694C845.406 115.593 843.603 122.475 843.603 130.34ZM865.233 130.34C865.233 126.08 866.107 122.311 867.855 119.034C869.712 115.757 872.17 113.244 875.229 111.496C878.288 109.748 881.674 108.874 885.388 108.874C889.103 108.874 892.489 109.748 895.548 111.496C898.607 113.244 901.01 115.757 902.758 119.034C904.615 122.311 905.544 126.08 905.544 130.34C905.544 134.601 904.615 138.37 902.758 141.647C901.01 144.815 898.607 147.327 895.548 149.185C892.489 150.932 889.103 151.806 885.388 151.806C881.674 151.806 878.288 150.932 875.229 149.185C872.17 147.327 869.712 144.815 867.855 141.647C866.107 138.37 865.233 134.601 865.233 130.34Z" fill="black"/>
<path d="M995.041 122.147V168.029H1017V119.853C1017 110.786 1014.81 103.74 1010.44 98.7149C1006.07 93.5805 999.41 91.0133 990.453 91.0133C985.1 91.0133 980.512 92.1604 976.688 94.4544C972.974 96.6393 969.97 99.8619 967.676 104.122V92.6519H946.374V168.029H967.676V122.147C967.676 118.979 968.277 116.248 969.478 113.954C970.68 111.66 972.428 109.912 974.722 108.71C977.016 107.4 979.638 106.744 982.587 106.744C986.957 106.744 990.125 108.055 992.091 110.677C994.058 113.299 995.041 117.122 995.041 122.147Z" fill="black"/>
<path d="M1112.16 92.6519H1090.03L1066.27 152.298L1076.76 152.626L1052.51 92.6519H1028.91L1060.21 160.491L1041.2 204.079H1063L1112.16 92.6519Z" fill="black"/>
<defs>
<linearGradient id="paint0_linear_823_3784" x1="155.213" y1="27.7924" x2="28.5765" y2="95.8616" gradientUnits="userSpaceOnUse">
<stop stop-color="#15A6FE"/>
<stop offset="1" stop-color="#03EAB8"/>
</linearGradient>
<linearGradient id="paint1_linear_823_3784" x1="132.622" y1="224.944" x2="236.465" y2="166.303" gradientUnits="userSpaceOnUse">
<stop offset="0.00459486" stop-color="#FF7787"/>
<stop offset="0.488312" stop-color="#CC64FF"/>
<stop offset="1" stop-color="#5790FF"/>
</linearGradient>
<linearGradient id="paint2_linear_823_3784" x1="188.796" y1="97.9975" x2="82.9245" y2="161.066" gradientUnits="userSpaceOnUse">
<stop stop-color="#1B50EA"/>
<stop offset="0.455152" stop-color="#3B5BE6"/>
<stop offset="1" stop-color="#E80691"/>
</linearGradient>
<linearGradient id="paint3_linear_823_3784" x1="69.331" y1="114.044" x2="117.404" y2="200.196" gradientUnits="userSpaceOnUse">
<stop offset="0.575351" stop-color="#1B52F3"/>
<stop offset="1" stop-color="#B654FC"/>
</linearGradient>
<linearGradient id="paint4_linear_823_3784" x1="255.544" y1="40.7744" x2="31.2972" y2="172.976" gradientUnits="userSpaceOnUse">
<stop stop-color="#0065FC"/>
<stop offset="1" stop-color="#08DFFC"/>
</linearGradient>
</defs>
</svg>
