<svg width="41" height="41" viewBox="0 0 41 41" fill="none" xmlns="http://www.w3.org/2000/svg">
<path d="M29.8201 11.5815C30.7567 11.8464 31.2142 12.2266 31.2142 12.7976C31.2142 13.3786 30.9854 13.4115 30.7912 13.6929C30.6431 13.9019 30.4949 14.2014 30.5163 15.0868C30.5163 15.2678 30.4587 15.3666 30.3254 15.3666C30.1987 15.3666 30.1246 15.2958 30.1246 15.1674C30.1246 15.0818 30.1822 15.021 30.1822 14.9436C30.1822 14.8679 30.2069 14.445 29.9155 14.1932C29.0678 13.4246 24.8886 12.9079 22.227 12.9079C19.0008 12.9079 16.4231 13.5941 15.6972 13.5941C14.3853 13.5941 13.7763 12.9424 13.7763 12.4553C13.7763 11.9682 14.0611 11.881 14.0611 11.6473C14.0611 11.4136 13.9837 11.3807 13.9837 11.1816C13.9837 10.9808 14.1417 10.5825 14.303 10.5825C14.5417 10.5825 14.5203 10.8491 14.7491 11.249C15.0454 11.746 15.6544 12.4043 16.8116 12.4043C17.8387 12.4043 18.7094 12.0143 20.2271 11.6654C22.0871 11.2424 23.557 11.0384 25.0219 11.0384C25.6935 11.0384 28.207 11.0664 29.8201 11.5815ZM2.09946 11.8464C1.7933 11.8464 1.70442 12.141 1.70442 12.2332C1.70442 12.3237 1.74228 12.3747 1.74228 12.4553C1.74228 12.9079 0.986755 12.8503 0.986755 13.6172C0.986755 14.3791 2.02704 14.8235 2.92412 14.8235C3.81791 14.8235 5.49355 13.8591 6.21122 13.5843C6.51079 13.4658 7.20541 13.1235 8.1848 13.1235C9.15595 13.1235 10.165 13.6945 10.7937 14.1175C11.4258 14.5371 12.1682 14.7165 12.4825 14.7165C12.8299 14.7165 12.815 14.6523 12.9467 14.6523C13.0949 14.6523 13.1673 14.8268 12.8414 14.9749C12.6093 15.0802 12.2093 15.1559 11.6958 15.1559C10.4826 15.1559 8.70658 14.756 7.79304 14.756C6.53384 14.756 5.12814 15.0835 4.5866 15.6233C4.33311 15.8784 4.1718 16.2338 4.1718 16.4346C4.1718 16.6337 4.30513 16.6485 4.30513 17.0814C4.30513 17.5142 3.75865 17.6146 3.75865 17.8664C3.75865 17.9947 3.99074 18.0819 4.12571 18.0819C4.2541 18.0819 4.61129 17.8532 4.71993 17.7429C4.82856 17.6393 4.96189 17.3397 5.11826 17.1818C5.53141 16.7687 6.11904 16.5498 6.51244 16.5498C7.46055 16.5498 9.16747 17.0007 10.2868 17.0007C11.3962 17.0007 12.313 16.5021 12.8562 16.0874C13.4076 15.6694 13.8553 15.4883 13.9722 15.4357C14.0858 15.3879 14.2866 15.2892 14.3409 15.2234C14.3886 15.1576 14.5878 14.8564 14.6339 14.728C14.6866 14.5898 14.6536 14.496 14.4858 14.4285C14.3146 14.3627 13.8685 14.0961 13.5689 13.8607C13.2693 13.6287 12.5945 13.0494 12.0266 12.6298C11.4587 12.2167 10.6604 11.7213 9.63988 11.7213C8.83991 11.7213 7.73543 12.0554 7.04575 12.3632C5.29932 13.1432 4.6047 13.2535 4.12407 13.2535C3.32081 13.2535 3.12 13.1054 2.77762 12.7631C2.05173 12.0324 2.56035 11.8464 2.09946 11.8464Z" fill="#ED1B2E"/>
<path d="M16.0727 5.84947C16.4216 5.84947 16.341 6.37773 17.0833 6.37773C17.5064 6.37773 17.559 6.17038 18.0578 6.17038C19.4997 6.17038 20.0264 7.90494 21.0272 7.90494C21.4831 7.90494 21.5276 7.60048 22.0066 7.60048C22.1876 7.60048 22.5218 7.70416 22.6535 7.8424C22.7884 7.97241 23.0732 8.21433 23.7925 10.1727C23.8732 10.3883 23.7596 10.4739 23.6477 10.4739C23.539 10.4739 23.3152 10.3735 22.8115 9.84521C22.5267 9.54569 22.288 9.68393 21.0371 8.90223C20.4511 8.53524 19.8865 8.00532 19.2577 7.76999C18.6257 7.53795 17.5722 7.44743 17.1722 7.35034C16.6504 7.22856 15.8175 6.82865 15.8175 6.22468C15.8175 6.02391 15.9361 5.84947 16.0727 5.84947ZM23.1818 5.61084C22.9481 5.61084 22.8543 5.79187 22.8543 5.92352C22.8543 6.05847 22.8773 6.25266 23.3777 6.75295C23.8715 7.25324 24.0723 7.28616 25.2789 8.00532C26.4837 8.7212 26.0986 9.68722 26.6928 9.68722C26.9496 9.68722 27.0582 9.17706 27.0582 8.68006C27.0582 8.18471 26.887 7.6696 26.673 7.45237C25.8319 6.60978 24.7241 7.05411 24.0098 6.36786C23.7036 6.06341 23.4715 5.61084 23.1818 5.61084ZM28.6334 7.87038C28.5297 7.87038 28.3256 7.93621 28.3256 8.15508C28.3256 8.37725 28.3684 8.41181 28.6976 8.7969C29.0779 9.2396 28.9972 9.73989 29.1766 10.0954C29.2919 10.3373 29.4186 10.3718 29.5816 10.3718C30.3223 10.3718 30.4375 9.65266 30.4375 9.59671C30.4375 9.53911 30.3848 9.40252 30.1807 9.19681C29.7198 8.7393 29.5058 8.83146 29.1783 8.55499C28.8425 8.28345 28.9297 7.87038 28.6334 7.87038ZM30.1231 16.8197C29.3873 16.8197 28.3684 17.2031 27.8911 17.6804C27.4121 18.156 27.236 18.9838 27.236 19.9399C27.236 20.8862 27.5356 22.4512 27.5356 22.912C27.5356 23.3778 27.4022 23.5357 27.3347 23.6592C27.2705 23.7777 27.1125 23.8813 26.7027 23.8813C26.2994 23.8813 25.7908 23.7678 25.5653 23.7678C25.1768 23.7678 24.9102 24.0344 24.6155 24.0344C24.3159 24.0344 24.074 23.8632 23.9406 23.8632C23.9077 23.8632 23.7826 23.9208 23.7826 23.9817C23.7826 24.1776 24.4163 24.5199 24.7258 24.5199C25.0336 24.5199 25.4517 24.1874 25.6657 24.1874C25.776 24.1874 25.9504 24.2006 26.1233 24.329C26.2846 24.4639 26.4179 24.6005 26.4755 24.6005C26.5298 24.6005 26.6846 24.5001 26.6846 24.5001C26.6846 24.5001 27.0467 24.2961 27.4565 24.0097C27.8713 23.7201 27.8993 23.2017 27.8993 23.0124C27.8993 22.8264 28.0787 21.3667 28.1215 20.7858C28.1693 20.2147 28.38 19.2866 28.431 19.0529C28.4886 18.8208 28.5314 18.7731 28.6351 18.7731C28.7306 18.7731 28.8968 18.8965 28.8968 18.9821C28.8968 19.0726 28.6993 19.1829 28.6993 19.2734C28.6993 19.3195 28.7734 19.5713 28.989 19.5713C29.1964 19.5713 29.8959 19.2471 29.8959 18.9196C29.8959 18.5806 28.989 18.1296 28.9083 18.0967C28.8376 18.0622 28.7882 17.9766 28.8458 17.8861C29.1947 17.3249 29.998 17.1768 30.1182 17.1587C30.24 17.1323 30.4507 17.1323 30.4507 17.0007C30.4474 16.869 30.3223 16.8197 30.1231 16.8197ZM30.714 19.5433C30.6235 19.5433 30.6136 19.6733 30.6054 19.8379C30.5494 20.5998 30.4474 21.5741 29.8811 23.3333C29.3149 25.0926 28.7207 26.0454 28.4195 26.5869C28.1199 27.1299 27.4203 28.5436 26.5842 29.3796C25.7463 30.2123 25.032 30.0922 24.3653 30.0922C23.674 30.0922 23.2197 30.0889 21.5638 29.5886C19.3005 28.9023 18.1137 27.9808 17.8899 27.8623C17.6693 27.7388 17.5969 27.8623 17.7253 27.9956C18.5993 28.8661 20.0511 29.7318 21.5111 30.316C22.9728 30.9068 24.2715 31.101 25.1752 31.101C26.0838 31.101 26.4607 30.7916 26.7175 30.5382C27.3792 29.8782 27.8549 28.7789 28.4639 27.7372C29.0779 26.7004 29.2737 26.6856 29.9717 24.8836C30.6712 23.0766 30.9477 20.4682 30.9477 20.0748C30.9477 19.6914 30.8227 19.5433 30.714 19.5433ZM25.0468 25.2654C24.762 25.2654 24.3752 25.657 24.0229 25.866C23.5061 26.1623 23.2806 26.108 23.0485 26.108C22.9481 26.108 22.8246 26.1639 22.8246 26.2544C22.8246 26.4124 23.1341 26.5029 23.3629 26.5029C23.6246 26.5029 23.8485 26.4322 24.1448 26.2462C24.4443 26.075 24.7209 25.9335 24.9348 25.9335C25.3332 25.9335 25.5751 26.3186 25.6904 26.3992C25.743 26.4322 25.8006 26.4453 25.8138 26.4025C25.8336 26.3598 26.0525 26.1771 26.3274 26.1771C26.7027 26.1771 26.8706 26.3252 26.9512 26.3252C27.0352 26.3252 27.1175 26.2627 27.1175 26.2199C27.1175 26.1771 27.0697 26.0964 26.994 25.9352C26.9183 25.7838 26.8623 25.3312 26.6566 25.3312C26.4426 25.3312 26.3422 25.7212 25.9883 25.7212C25.6377 25.7212 25.376 25.2654 25.0468 25.2654ZM24.0328 26.8222C23.99 26.8222 23.9192 26.8502 23.9192 26.9357C23.9192 27.0197 24.0625 27.2155 24.2616 27.4163C24.4624 27.6154 25.0171 28.0565 25.5307 28.0565C26.4163 28.0565 26.7455 26.9769 26.7455 26.9341C26.7455 26.8913 26.7224 26.7761 26.6154 26.7761C26.4377 26.7761 26.2089 27.1661 25.3661 27.1661C24.4954 27.1694 24.2106 26.8222 24.0328 26.8222ZM22.5218 17.6359C22.2206 17.6359 22.0313 17.6326 21.256 17.7363C20.4807 17.8416 20.3424 18.026 20.3424 18.1362C20.3424 18.3353 20.5136 18.3074 20.5136 18.5592C20.5136 18.6365 20.4429 18.783 20.4429 18.8636C20.4429 18.9475 20.4675 19.02 20.5745 19.02C20.6799 19.02 21.465 18.4686 21.7218 18.4686C21.9786 18.4686 22.2601 18.7073 22.2601 18.8241C22.2601 18.9393 21.7728 19.0595 21.7728 19.173C21.7728 19.331 22.0214 19.4626 22.1399 19.4626C22.3605 19.4626 23.2888 19.0973 23.2888 18.7402C23.2888 18.6497 22.9827 18.3172 22.9399 18.2843C22.902 18.2514 22.8921 18.2284 22.8921 18.1938C22.8921 18.1609 22.9366 18.1379 23.4024 18.1379C23.8633 18.1379 24.4624 18.3172 24.4624 18.1231C24.4624 17.7692 23.1259 17.6359 22.5218 17.6359ZM22.1597 15.9425C20.4758 15.9425 18.9483 16.2897 18.9483 16.6172C18.9483 16.7078 19.0964 16.8657 19.0964 17.0122C19.0964 17.2113 18.9154 17.4862 18.9154 17.5997C18.9154 17.7215 19.0569 17.8351 19.1474 17.8351C19.4487 17.8351 19.7054 17.3051 21.5128 16.7456C22.665 16.3934 23.7974 16.3885 24.2468 16.3885C24.4888 16.3885 24.5563 16.3753 24.5563 16.2749C24.5563 16.2173 24.5118 16.1235 24.3044 16.084C24.0954 16.0429 22.7835 15.9425 22.1597 15.9425ZM38.1211 15.3863C36.722 15.3863 35.6438 18.569 35.2669 19.8198C34.5673 22.1089 34.1822 24.3685 34.1822 25.2654C34.1822 26.1606 34.434 26.8255 34.5673 27.0608C34.625 27.1596 34.9756 27.3751 34.9756 27.0427C34.9756 26.8568 34.8208 26.447 34.8208 25.9138C34.8208 25.1057 35.0398 24.1578 35.5286 22.6471C36.5096 19.6256 37.8594 17.8054 38.0882 17.58C38.312 17.3578 38.5688 17.2146 38.7021 17.2146C39.2486 17.2146 38.9671 17.8137 39.1811 17.8137C39.3326 17.8137 39.4132 17.5322 39.4132 17.3644C39.4149 16.2897 39.0462 15.3863 38.1211 15.3863ZM35.4381 29.9852C35.2537 29.9852 34.7978 30.1564 34.5854 30.2847C34.3731 30.4197 33.8826 30.7422 33.8826 30.9101C33.8826 31.1191 34.225 31.0516 34.225 31.3182C34.225 31.3709 34.1904 31.4417 34.1904 31.519C34.1904 31.5963 34.2414 31.6951 34.3287 31.6951C34.5937 31.6951 34.6842 31.1537 35.0002 30.8212C35.1945 30.6106 35.6455 30.2304 35.6455 30.1136C35.6471 30.0428 35.5533 29.9852 35.4381 29.9852ZM35.0661 32.1444C34.3912 32.1444 33.746 32.6348 33.4349 32.9113C33.1254 33.1861 32.7929 33.5103 32.7929 33.7111C32.7929 34.0205 33.1567 33.9727 33.2933 34.0731C33.4843 34.2048 33.3262 34.6244 33.583 34.6244C33.7032 34.6244 33.8349 34.4895 33.9238 34.0731C34.011 33.6535 34.5723 32.9162 34.6776 32.8109C34.7813 32.7072 35.3179 32.3879 35.3179 32.253C35.3179 32.1921 35.2093 32.1444 35.0661 32.1444ZM13.1098 18.3633C12.965 18.3633 12.909 18.6398 12.909 19.0051C12.909 20.5554 13.5609 22.5352 14.2851 23.8879C14.3904 24.092 14.6011 24.0393 14.504 23.7431C14.2604 23.0354 14.1386 22.2307 14.1386 21.5313C14.1386 20.534 14.3263 19.8823 14.2933 19.4725C14.29 19.3721 14.0942 19.3886 13.974 19.2734C13.8522 19.1631 13.9427 19.0627 13.7617 18.8735C13.5855 18.6826 13.5329 18.8636 13.4094 18.7155C13.286 18.5789 13.3041 18.3633 13.1098 18.3633ZM12.1766 19.8444C12.0333 19.8444 11.9115 20.2855 11.505 20.7759C11.1017 21.2647 10.3775 21.6317 10.2622 21.6942C10.1437 21.765 10.0729 21.9608 10.0729 22.0447C10.0729 22.1303 10.1536 22.2636 10.1536 22.3624C10.1536 22.4595 10.1305 22.5434 9.94455 22.6915C9.76349 22.8396 9.85402 22.9581 9.882 23.0075C9.90505 23.0585 9.90504 23.2017 10.0301 23.2017C10.3017 23.2017 11.0474 22.392 11.5198 21.7781C11.9971 21.1594 12.3148 20.1176 12.3148 20.009C12.3148 19.9053 12.2671 19.8444 12.1766 19.8444ZM12.5996 29.1772C12.8992 29.0192 13.6892 28.5255 13.6892 27.8063C13.6892 27.2073 13.3222 26.9176 12.8383 26.6938C12.7823 27.5019 12.6901 28.3774 12.5996 29.1772ZM12.9057 25.3888C13.8999 25.8858 14.8036 26.521 14.8036 27.4969C14.8036 28.3 14.1419 29.0011 13.1576 29.5985C12.9469 29.7268 12.7346 29.847 12.5156 29.9507C12.458 30.3983 12.4053 30.8015 12.3576 31.1257C12.1634 32.5871 11.7469 34.6787 11.5149 34.6787C11.2828 34.6787 11.263 33.5975 11.2301 33.1334C11.2103 32.852 11.1626 31.6819 11.1247 30.66C10.9536 30.7603 10.8071 30.8739 10.682 30.9924C10.1569 31.5157 10.0334 31.9189 10.0334 32.2925C10.0334 32.6529 10.3347 33.2388 10.3347 33.5843C10.3347 33.9316 10.0878 34.5109 9.78818 34.5109C9.53634 34.5109 9.73386 34.1965 9.73386 33.8987C9.73386 33.1137 8.72156 33.1647 8.72156 32.0226C8.72156 31.7083 8.77258 31.4433 9.24005 30.9776C9.55938 30.6583 10.5157 30.13 11.0951 29.8256C11.0869 29.5294 11.0819 29.2841 11.0819 29.1311C11.0819 28.6571 11.1824 27.3044 11.2729 26.2528C10.7099 26.2297 10.1157 26.2446 9.60382 25.7262C9.39313 25.5221 9.20878 25.1979 9.20878 24.984C9.20878 24.7651 9.37009 24.584 10.2161 24.584C10.5174 24.584 10.9025 24.6104 11.4457 24.7782C11.5955 23.9027 11.9724 22.2439 12.3148 22.2439C12.5436 22.2439 12.909 23.3234 12.909 25.0119C12.909 25.137 12.9057 25.2571 12.9057 25.3888ZM32.8818 28.1486C32.0325 28.1486 31.8745 29.5096 31.8745 29.9655C31.8745 30.418 31.965 30.6517 31.965 31.3923C31.965 32.5788 31.3379 32.6117 30.556 33.3441C29.8515 34.0056 29.7857 34.9124 29.7857 35.1807C29.7857 35.4456 29.8285 36.2109 30.1 36.2109C30.3815 36.2109 30.286 35.7073 30.556 35.2547C30.8803 34.7232 31.4646 34.2196 31.8514 33.5712C32.2168 32.9705 32.4506 32.2678 32.4967 31.5503C32.5394 30.8311 32.6744 30.3078 32.9032 29.9095C33.1353 29.5113 33.4349 29.3829 33.5485 29.3023C33.6587 29.2216 33.8826 29.2216 33.8826 29.0258C33.8826 28.825 33.4629 28.7641 33.3493 28.644C33.2308 28.5354 33.2637 28.4597 33.1929 28.3412C33.1254 28.221 33.0201 28.1486 32.8818 28.1486Z" fill="white"/>
</svg>
