<svg width="92" height="40" viewBox="0 0 92 40" fill="none" xmlns="http://www.w3.org/2000/svg">
<path d="M10.2722 10.7334C4.98052 10.7334 0.989223 14.6836 0.989223 19.9258V34.9242C0.985296 35.1051 0.993651 35.2861 1.01423 35.4658C1.05675 35.8658 1.30433 36 2.59224 36C3.88016 36 4.11524 35.8658 4.15775 35.4658C4.17526 35.2994 4.18026 35.0808 4.18276 34.9242V26.5244C4.98187 27.3774 5.95186 28.0549 7.03034 28.5131C8.10882 28.9714 9.27191 29.2003 10.4448 29.1852C15.7215 29.1852 19.5503 25.2896 19.5503 19.9233C19.5631 18.7286 19.339 17.5431 18.8906 16.4346C18.4422 15.326 17.7783 14.316 16.9369 13.4624C16.0955 12.6088 15.0931 11.9282 13.9869 11.4595C12.8807 10.9908 11.6924 10.7432 10.4898 10.7309L10.2722 10.7334ZM10.2722 26.271C6.7711 26.271 4.11774 23.5381 4.11774 19.9233C4.11774 16.3482 6.7636 13.6526 10.2722 13.6526C13.7809 13.6526 16.4142 16.4153 16.4142 19.9605C16.4142 23.4536 13.8309 26.271 10.2722 26.271ZM36.8984 20.6785C36.8984 25.7145 32.8621 26.1045 31.6242 26.1045C28.2156 26.1045 26.2624 24.117 26.2624 20.6214V14.2016C26.2624 12.4377 25.7873 11.2526 24.5719 9.97811C24.0798 9.45569 23.4592 9.06953 22.7713 8.85763C22.3737 8.75826 22.3187 8.78807 21.946 9.08869C21.876 9.14334 20.2505 10.4775 20.2505 10.4775C20.1955 10.5222 20.0354 10.6613 20.0679 10.8228C20.1004 10.9843 20.318 11.0713 20.4856 11.1209C21.7585 11.5657 22.1286 11.9855 22.5087 12.4203C22.9114 12.9172 23.0989 13.6253 23.0989 14.6861V20.6288C23.0989 25.8834 26.365 29.1479 31.6242 29.1479C36.8284 29.1479 40.0619 25.9058 40.0619 20.686L40.0769 12.4228C40.0809 12.2419 40.0725 12.061 40.0519 11.8812C40.0094 11.4787 39.7618 11.347 38.4739 11.347C37.186 11.347 36.9509 11.4787 36.9084 11.8812C36.8909 12.0476 36.8859 12.2663 36.8834 12.4228L36.8984 20.6785ZM45.6513 27.9256C44.3433 26.7182 43.9207 25.5008 43.9207 23.7394V5.87881C43.9207 4.82044 43.7331 4.09996 43.328 3.61301C42.9504 3.18072 42.5778 2.76085 41.3048 2.31365C41.1273 2.25403 40.9222 2.18695 40.8897 2.01801C40.8572 1.84907 41.0173 1.71491 41.0698 1.67019C41.0698 1.67019 42.6978 0.33605 42.7678 0.281393C43.1404 -0.0192229 43.1955 -0.0490365 43.5906 0.052825C44.2792 0.263136 44.9002 0.649531 45.3912 1.1733C46.6091 2.45278 47.0817 3.63785 47.0817 5.39683V23.9729C47.0817 25.2996 47.8445 25.7319 48.3321 25.9604C48.8198 26.189 49.46 26.2735 51.018 26.2586C51.4106 26.2586 51.4631 26.4051 51.3631 26.666L50.6279 28.497C50.4428 28.9368 50.2553 29.0734 49.9251 29.1206C48.2471 29.3691 46.7066 28.8945 45.6738 27.9256H45.6513ZM67.0807 14.9072C66.8707 15.2799 65.9579 15.901 65.1826 16.0227C64.765 16.0774 64.7025 16.0227 64.3248 15.6153C62.7868 14.0799 62.0016 13.6277 59.8234 13.6277C59.6183 13.6277 56.4598 13.6551 56.4298 15.8339C56.4298 17.5457 58.5655 18.0525 60.4636 18.3705C62.6968 18.7655 67.3433 19.5854 67.3433 23.8934C67.3531 24.506 67.2361 25.1141 66.9995 25.68C66.7629 26.2458 66.4117 26.7573 65.9679 27.1828C64.6674 28.4598 62.7168 29.1927 60.1335 29.1927C57.3826 29.1653 54.8267 28.5417 52.606 26.0225C52.2084 25.5704 52.2159 25.4014 52.3334 25.2275C52.8116 24.5873 53.4938 24.1267 54.2691 23.9207C54.8342 23.789 54.7842 23.799 55.1168 24.1567C56.8924 25.9654 58.8681 26.43 61.2338 26.2188C62.7618 26.0822 64.2973 25.2872 64.2798 23.799C64.2648 22.4375 62.8744 21.6251 59.6308 21.086C54.0115 20.1494 53.2737 17.337 53.3338 15.7445C53.3496 14.9647 53.5645 14.2017 53.9581 13.5269C54.3517 12.852 54.9113 12.2875 55.5845 11.8861C56.7524 11.1408 58.3354 10.7408 60.0359 10.7408C62.8218 10.7408 65.3702 11.6799 67.0382 14.2662C67.2533 14.5743 67.2508 14.629 67.0907 14.9072H67.0807ZM85.9069 26.5095C86.1569 26.2437 86.327 26.107 85.9544 25.5704C85.585 25.0602 85.0839 24.6586 84.5039 24.4077C84.1563 24.2636 84.0788 24.3282 83.6836 24.6288C82.371 25.7398 80.691 26.3292 78.9671 26.2834C75.9661 26.2834 73.5528 24.1617 73.0702 21.1059H85.7643C85.9463 21.1065 86.1265 21.0716 86.2949 21.003C86.4632 20.9344 86.6163 20.8336 86.7454 20.7062C86.8746 20.5789 86.9772 20.4275 87.0474 20.2608C87.1176 20.0941 87.1541 19.9152 87.1548 19.7345C87.1548 15.3966 84.5039 10.7259 78.682 10.7259C72.9777 10.7259 69.9917 15.3494 69.9917 19.9183C69.9917 22.5642 70.927 24.9542 72.63 26.6486C74.1981 28.2138 76.6313 29.1852 78.9946 29.1852C82.4957 29.2101 84.4439 28.0001 85.9094 26.5095H85.9069ZM84.1163 18.3705H73.1502C73.7329 15.5234 75.9661 13.6203 78.717 13.6203C79.8099 13.6203 83.4135 13.9656 84.1263 18.3705H84.1163ZM89.9032 14.1097C90.1357 13.9979 91.7538 12.8128 91.7538 12.8128C92.0038 12.6166 92.0313 12.5644 91.9413 12.2737C91.5 10.9094 90.7389 9.6688 89.7206 8.65391C89.0455 7.95091 88.2537 7.36851 87.3798 6.9322C87.0447 6.77817 86.9622 6.80301 86.7146 6.97195C86.4195 7.17816 85.0941 8.321 85.0366 8.3682C84.6214 8.71602 84.7865 8.92471 85.1191 9.0713C86.9647 9.87625 88.4402 11.429 89.2804 13.7917C89.4355 14.2538 89.7081 14.2315 89.9007 14.1097H89.9032Z" fill="#ED1B2E"/>
</svg>
