<svg width="180" height="45" viewBox="0 0 180 45" fill="none" xmlns="http://www.w3.org/2000/svg">
<g clip-path="url(#clip0_947_6116)">
<path d="M6.22778 20.1788V16.5484C6.22778 14.3028 7.4257 12.2278 9.37034 11.105L21.9441 3.84454V7.47633C21.9441 9.72205 20.746 11.7972 18.8011 12.92L6.22778 20.1788Z" fill="url(#paint0_linear_947_6116)"/>
<path d="M21.9417 40.1673V36.5369C21.9417 34.2914 23.1396 32.2164 25.0842 31.0935L37.658 23.8331V27.4649C37.658 29.7106 36.4599 31.7857 34.515 32.9085L21.9417 40.1673Z" fill="url(#paint1_linear_947_6116)"/>
<path d="M31.3706 24.6844L34.5138 22.8699C36.4582 21.7476 37.6563 19.6734 37.6571 17.4284L37.66 9.29437L34.5143 11.1105C32.5697 12.2333 31.3717 14.308 31.3715 16.5535L31.3706 24.6844Z" fill="url(#paint2_linear_947_6116)"/>
<path d="M37.656 12.9382V9.30646L12.514 23.8147V19.3243L9.36501 21.1467C7.42337 22.2704 6.22778 24.3437 6.22778 26.587L6.22778 34.7073L34.5124 18.3822C36.4576 17.2595 37.656 15.1842 37.656 12.9382Z" fill="url(#paint3_linear_947_6116)"/>
</g>
<path d="M53.2586 22.4521L50.5195 24.387C50.9313 25.2649 51.5042 26.0801 52.2382 26.8326C52.9722 27.5851 53.8315 28.1853 54.8162 28.6332C55.8187 29.0632 56.8929 29.2781 58.0387 29.2781C58.898 29.2781 59.7126 29.1438 60.4824 28.875C61.2701 28.6242 61.9773 28.2569 62.6039 27.7732C63.2305 27.2715 63.7228 26.6624 64.0808 25.9457C64.4389 25.2291 64.6179 24.4139 64.6179 23.5002C64.6179 22.6939 64.4837 21.9862 64.2151 21.3771C63.9645 20.75 63.6064 20.2125 63.141 19.7646C62.6934 19.2988 62.1832 18.9046 61.6103 18.5821C61.0553 18.2596 60.4734 17.9909 59.8648 17.7759C58.9159 17.4534 58.1282 17.1399 57.5016 16.8353C56.875 16.5128 56.4095 16.1814 56.1052 15.841C55.8008 15.4826 55.6487 15.0706 55.6487 14.6047C55.6487 14.1389 55.8366 13.7358 56.2126 13.3954C56.5886 13.0371 57.1525 12.8579 57.9044 12.8579C58.4773 12.8579 58.9875 12.9744 59.4351 13.2073C59.8827 13.4223 60.2765 13.7179 60.6167 14.0941C60.9747 14.4524 61.2791 14.8556 61.5297 15.3035L64.5374 13.6373C64.2151 12.9744 63.7586 12.3383 63.1678 11.7292C62.5949 11.1021 61.8699 10.5915 60.9926 10.1973C60.1333 9.78526 59.1039 9.57922 57.9044 9.57922C56.7407 9.57922 55.6845 9.79422 54.7356 10.2242C53.8047 10.6363 53.0617 11.2365 52.5067 12.0248C51.9697 12.7952 51.7011 13.7179 51.7011 14.7929C51.7011 15.6887 51.8712 16.4591 52.2113 17.1041C52.5515 17.7311 52.9812 18.2686 53.5003 18.7165C54.0195 19.1465 54.5655 19.5048 55.1384 19.7915C55.7292 20.0602 56.2484 20.2752 56.696 20.4365C57.5374 20.759 58.2446 21.0635 58.8174 21.3502C59.4082 21.6189 59.8469 21.9325 60.1333 22.2908C60.4376 22.6491 60.5898 23.1239 60.5898 23.7151C60.5898 24.396 60.3481 24.9335 59.8648 25.3276C59.3814 25.7218 58.7548 25.9188 57.985 25.9188C57.3226 25.9188 56.7049 25.7755 56.132 25.4889C55.5591 25.2022 55.031 24.7991 54.5476 24.2795C54.0822 23.7599 53.6525 23.1508 53.2586 22.4521Z" fill="black"/>
<path d="M79.1616 16.9226H75.688L71.9571 26.2955L73.6038 26.347L69.7957 16.9226H66.0905L71.005 27.583L68.0203 34.4325H71.4425L79.1616 16.9226Z" fill="black"/>
<path d="M98.6677 21.1971C98.6677 20.2357 98.5304 19.4203 98.256 18.7508C97.9987 18.0642 97.5956 17.5492 97.0466 17.2058C96.4977 16.8453 95.7858 16.6651 94.911 16.6651C94.1048 16.6651 93.3843 16.8368 92.7497 17.1801C92.1321 17.5234 91.6089 18.0298 91.1801 18.6993C90.9228 18.0298 90.5111 17.5234 89.945 17.1801C89.379 16.8368 88.6585 16.6651 87.7837 16.6651C86.9946 16.6651 86.3171 16.8368 85.751 17.1801C85.1849 17.5234 84.7303 18.0213 84.3873 18.6736V16.9226H81.171V28.7675H84.3873V21.5576C84.3873 21.0426 84.473 20.6048 84.6446 20.2443C84.8161 19.8667 85.0563 19.592 85.365 19.4203C85.6738 19.2315 86.034 19.1371 86.4457 19.1371C87.0632 19.1371 87.5092 19.3431 87.7837 19.7551C88.0581 20.1499 88.1954 20.7507 88.1954 21.5576V28.7675H91.5146V21.5576C91.5146 21.0426 91.6004 20.6048 91.7719 20.2443C91.9434 19.8667 92.1836 19.592 92.4924 19.4203C92.8011 19.2315 93.1613 19.1371 93.573 19.1371C94.1906 19.1371 94.6366 19.3431 94.911 19.7551C95.1855 20.1499 95.3227 20.7507 95.3227 21.5576V28.7675H98.6677V21.1971Z" fill="black"/>
<path d="M105.734 34.4325V16.9226H102.389V34.4325H105.734ZM115.46 22.8451C115.46 21.4889 115.194 20.3473 114.662 19.4203C114.13 18.4762 113.427 17.7638 112.552 17.2831C111.695 16.8024 110.768 16.5621 109.773 16.5621C108.761 16.5621 107.878 16.8196 107.123 17.3346C106.386 17.8496 105.811 18.5792 105.399 19.5233C105.005 20.4503 104.807 21.5576 104.807 22.8451C104.807 24.1154 105.005 25.2226 105.399 26.1668C105.811 27.111 106.386 27.8405 107.123 28.3555C107.878 28.8705 108.761 29.128 109.773 29.128C110.768 29.128 111.695 28.8877 112.552 28.407C113.427 27.9264 114.13 27.214 114.662 26.2698C115.194 25.3256 115.46 24.1841 115.46 22.8451ZM112.012 22.8451C112.012 23.5489 111.866 24.1497 111.574 24.6476C111.283 25.1454 110.888 25.523 110.391 25.7805C109.911 26.038 109.379 26.1668 108.796 26.1668C108.298 26.1668 107.809 26.0466 107.329 25.8063C106.866 25.5488 106.48 25.1711 106.171 24.6733C105.879 24.1755 105.734 23.5661 105.734 22.8451C105.734 22.1241 105.879 21.5147 106.171 21.0168C106.48 20.519 106.866 20.1499 107.329 19.9096C107.809 19.6521 108.298 19.5233 108.796 19.5233C109.379 19.5233 109.911 19.6521 110.391 19.9096C110.888 20.1671 111.283 20.5447 111.574 21.0426C111.866 21.5404 112.012 22.1412 112.012 22.8451Z" fill="black"/>
<path d="M121.804 9.69043H118.459V28.7675H121.804V9.69043ZM126.101 21.5576V28.7675H129.446V21.0683C129.446 20.0898 129.3 19.2658 129.008 18.5963C128.717 17.9097 128.271 17.3947 127.67 17.0513C127.07 16.708 126.307 16.5363 125.38 16.5363C124.454 16.5363 123.674 16.7595 123.039 17.2058C122.404 17.6522 121.924 18.253 121.598 19.0083C121.289 19.7637 121.135 20.6134 121.135 21.5576H121.804C121.804 21.0597 121.898 20.6306 122.087 20.2701C122.276 19.9096 122.55 19.6349 122.91 19.4461C123.271 19.2401 123.682 19.1371 124.145 19.1371C124.849 19.1371 125.346 19.3431 125.638 19.7551C125.947 20.1671 126.101 20.7679 126.101 21.5576Z" fill="black"/>
<path d="M132.448 22.8451C132.448 24.0639 132.731 25.1454 133.297 26.0895C133.881 27.0165 134.661 27.7375 135.639 28.2525C136.634 28.7675 137.757 29.025 139.01 29.025C140.262 29.025 141.377 28.7675 142.354 28.2525C143.349 27.7375 144.13 27.0165 144.696 26.0895C145.279 25.1454 145.571 24.0639 145.571 22.8451C145.571 21.6091 145.279 20.5276 144.696 19.6006C144.13 18.6736 143.349 17.9526 142.354 17.4376C141.377 16.9226 140.262 16.6651 139.01 16.6651C137.757 16.6651 136.634 16.9226 135.639 17.4376C134.661 17.9526 133.881 18.6736 133.297 19.6006C132.731 20.5276 132.448 21.6091 132.448 22.8451ZM135.845 22.8451C135.845 22.1756 135.982 21.5833 136.256 21.0683C136.548 20.5533 136.934 20.1585 137.414 19.8838C137.895 19.6092 138.426 19.4718 139.01 19.4718C139.593 19.4718 140.125 19.6092 140.605 19.8838C141.085 20.1585 141.463 20.5533 141.737 21.0683C142.029 21.5833 142.174 22.1756 142.174 22.8451C142.174 23.5146 142.029 24.1068 141.737 24.6218C141.463 25.1196 141.085 25.5145 140.605 25.8063C140.125 26.081 139.593 26.2183 139.01 26.2183C138.426 26.2183 137.895 26.081 137.414 25.8063C136.934 25.5145 136.548 25.1196 136.256 24.6218C135.982 24.1068 135.845 23.5146 135.845 22.8451Z" fill="black"/>
<path d="M156.228 21.5576V28.7675H159.675V21.1971C159.675 19.7722 159.332 18.665 158.646 17.8753C157.96 17.0685 156.914 16.6651 155.507 16.6651C154.667 16.6651 153.946 16.8453 153.346 17.2058C152.763 17.5492 152.291 18.0556 151.931 18.7251V16.9226H148.586V28.7675H151.931V21.5576C151.931 21.0597 152.025 20.6306 152.214 20.2701C152.402 19.9096 152.677 19.6349 153.037 19.4461C153.397 19.2401 153.809 19.1371 154.272 19.1371C154.958 19.1371 155.456 19.3431 155.764 19.7551C156.073 20.1671 156.228 20.7679 156.228 21.5576Z" fill="black"/>
<path d="M174.617 16.9226H171.144L167.413 26.2955L169.06 26.347L165.252 16.9226H161.546L166.461 27.583L163.476 34.4325H166.898L174.617 16.9226Z" fill="black"/>
<defs>
<linearGradient id="paint0_linear_947_6116" x1="21.9441" y1="15.4275" x2="6.09169" y2="15.2879" gradientUnits="userSpaceOnUse">
<stop stop-color="#15A6FE"/>
<stop offset="1" stop-color="#03EAB8"/>
</linearGradient>
<linearGradient id="paint1_linear_947_6116" x1="22.5432" y1="30.986" x2="35.688" y2="31.0223" gradientUnits="userSpaceOnUse">
<stop offset="0.00459486" stop-color="#FF7787"/>
<stop offset="0.488312" stop-color="#CC64FF"/>
<stop offset="1" stop-color="#5790FF"/>
</linearGradient>
<linearGradient id="paint2_linear_947_6116" x1="34.006" y1="12.1898" x2="37.7563" y2="20.6292" gradientUnits="userSpaceOnUse">
<stop offset="0.575351" stop-color="#1B52F3"/>
<stop offset="1" stop-color="#B654FC"/>
</linearGradient>
<linearGradient id="paint3_linear_947_6116" x1="40.4246" y1="8.3748" x2="5.18572" y2="29.1493" gradientUnits="userSpaceOnUse">
<stop stop-color="#0065FC"/>
<stop offset="1" stop-color="#08DFFC"/>
</linearGradient>
<clipPath id="clip0_947_6116">
<rect width="44" height="44" fill="white" transform="translate(0 0.00585938)"/>
</clipPath>
</defs>
</svg>
