<svg width="1153" height="280" viewBox="0 0 1153 280" fill="none" xmlns="http://www.w3.org/2000/svg">
<g clip-path="url(#clip0_947_3972)">
<path d="M39.6323 128.374V105.271C39.6323 90.9809 47.2554 77.7765 59.6304 70.6309L139.645 24.4282V47.5396C139.645 61.8306 132.021 75.0359 119.645 82.1811L39.6323 128.374Z" fill="url(#paint0_linear_947_3972)"/>
<path d="M139.629 255.573V232.47C139.629 218.181 147.252 204.976 159.627 197.831L239.643 151.628V174.739C239.643 189.03 232.018 202.236 219.642 209.381L139.629 255.573Z" fill="url(#paint1_linear_947_3972)"/>
<path d="M199.631 157.045L219.634 145.499C232.007 138.356 239.631 125.157 239.636 110.871L239.655 59.1089L219.637 70.6663C207.262 77.8109 199.638 91.014 199.637 105.303L199.631 157.045Z" fill="url(#paint2_linear_947_3972)"/>
<path d="M239.629 82.2973V59.186L79.635 151.512V122.936L59.596 134.533C47.2401 141.684 39.6318 154.878 39.6318 169.153V220.828L219.625 116.941C232.003 109.796 239.629 96.5898 239.629 82.2973Z" fill="url(#paint3_linear_947_3972)"/>
</g>
<path d="M338.919 142.84L321.488 155.153C324.108 160.74 327.754 165.927 332.425 170.716C337.096 175.504 342.564 179.324 348.83 182.174C355.21 184.91 362.046 186.278 369.337 186.278C374.805 186.278 379.989 185.423 384.888 183.713C389.901 182.117 394.401 179.78 398.388 176.701C402.376 173.509 405.509 169.633 407.787 165.072C410.066 160.512 411.205 155.324 411.205 149.509C411.205 144.379 410.35 139.875 408.642 135.999C407.047 132.008 404.768 128.588 401.806 125.738C398.958 122.773 395.711 120.265 392.065 118.213C388.534 116.161 384.831 114.451 380.957 113.082C374.919 111.03 369.907 109.035 365.919 107.097C361.932 105.044 358.97 102.935 357.033 100.769C355.096 98.4888 354.128 95.8665 354.128 92.9022C354.128 89.9378 355.324 87.3725 357.716 85.2063C360.109 82.9261 363.698 81.7859 368.482 81.7859C372.128 81.7859 375.375 82.527 378.223 84.0092C381.071 85.3773 383.578 87.2585 385.742 89.6528C388.021 91.933 389.958 94.4983 391.553 97.3486L410.692 86.7455C408.642 82.527 405.736 78.4796 401.977 74.6031C398.331 70.6127 393.717 67.3633 388.135 64.8551C382.666 62.2328 376.116 60.9216 368.482 60.9216C361.077 60.9216 354.356 62.2898 348.317 65.0261C342.393 67.6484 337.665 71.4678 334.134 76.4843C330.716 81.3869 329.007 87.2585 329.007 94.0993C329.007 99.7999 330.089 104.702 332.254 108.807C334.418 112.797 337.153 116.218 340.457 119.068C343.76 121.804 347.235 124.085 350.881 125.909C354.64 127.619 357.944 128.987 360.792 130.013C366.147 132.065 370.647 134.004 374.293 135.828C378.052 137.538 380.843 139.533 382.666 141.814C384.603 144.094 385.571 147.115 385.571 150.878C385.571 155.21 384.033 158.63 380.957 161.139C377.881 163.647 373.894 164.901 368.995 164.901C364.78 164.901 360.849 163.989 357.204 162.165C353.558 160.341 350.197 157.775 347.121 154.469C344.159 151.163 341.425 147.286 338.919 142.84Z" fill="black"/>
<path d="M503.755 107.652H481.651L457.908 167.298L468.388 167.626L444.154 107.652H420.576L451.85 175.491L432.856 219.079H454.634L503.755 107.652Z" fill="black"/>
<path d="M627.885 134.853C627.885 128.736 627.012 123.547 625.265 119.286C623.628 114.917 621.062 111.64 617.569 109.455C614.076 107.161 609.546 106.014 603.979 106.014C598.849 106.014 594.264 107.106 590.225 109.291C586.295 111.476 582.966 114.698 580.237 118.959C578.599 114.698 575.98 111.476 572.377 109.291C568.775 107.106 564.19 106.014 558.623 106.014C553.602 106.014 549.29 107.106 545.688 109.291C542.086 111.476 539.193 114.644 537.01 118.795V107.652H516.542V183.029H537.01V137.147C537.01 133.87 537.556 131.085 538.647 128.79C539.739 126.387 541.267 124.639 543.232 123.547C545.197 122.345 547.489 121.744 550.109 121.744C554.039 121.744 556.877 123.055 558.623 125.677C560.37 128.19 561.243 132.013 561.243 137.147V183.029H582.365V137.147C582.365 133.87 582.911 131.085 584.003 128.79C585.094 126.387 586.623 124.639 588.588 123.547C590.552 122.345 592.845 121.744 595.465 121.744C599.394 121.744 602.232 123.055 603.979 125.677C605.726 128.19 606.599 132.013 606.599 137.147V183.029H627.885V134.853Z" fill="black"/>
<path d="M672.85 219.079V107.652H651.564V219.079H672.85ZM734.744 145.341C734.744 136.711 733.052 129.446 729.668 123.547C726.284 117.539 721.808 113.005 716.241 109.946C710.783 106.887 704.889 105.358 698.558 105.358C692.117 105.358 686.495 106.997 681.692 110.274C676.999 113.551 673.342 118.194 670.722 124.202C668.211 130.101 666.956 137.147 666.956 145.341C666.956 153.425 668.211 160.471 670.722 166.479C673.342 172.487 676.999 177.13 681.692 180.407C686.495 183.685 692.117 185.323 698.558 185.323C704.889 185.323 710.783 183.794 716.241 180.735C721.808 177.676 726.284 173.143 729.668 167.134C733.052 161.126 734.744 153.861 734.744 145.341ZM712.803 145.341C712.803 149.82 711.875 153.643 710.019 156.811C708.164 159.979 705.653 162.382 702.487 164.021C699.431 165.66 696.047 166.479 692.335 166.479C689.17 166.479 686.059 165.714 683.002 164.185C680.055 162.546 677.599 160.143 675.634 156.975C673.778 153.807 672.85 149.929 672.85 145.341C672.85 140.752 673.778 136.874 675.634 133.706C677.599 130.538 680.055 128.19 683.002 126.66C686.059 125.022 689.17 124.202 692.335 124.202C696.047 124.202 699.431 125.022 702.487 126.66C705.653 128.299 708.164 130.702 710.019 133.87C711.875 137.038 712.803 140.862 712.803 145.341Z" fill="black"/>
<path d="M775.116 61.6293H753.83V183.029H775.116V61.6293ZM802.46 137.147V183.029H823.746V134.034C823.746 127.807 822.818 122.564 820.963 118.303C819.107 113.934 816.269 110.656 812.448 108.472C808.628 106.287 803.77 105.194 797.875 105.194C791.981 105.194 787.014 106.614 782.975 109.455C778.936 112.295 775.88 116.118 773.806 120.925C771.841 125.732 770.859 131.139 770.859 137.147H775.116C775.116 133.979 775.716 131.248 776.917 128.954C778.118 126.66 779.864 124.912 782.157 123.711C784.449 122.4 787.069 121.744 790.016 121.744C794.492 121.744 797.657 123.055 799.513 125.677C801.478 128.299 802.46 132.122 802.46 137.147Z" fill="black"/>
<path d="M842.853 145.341C842.853 153.097 844.654 159.979 848.256 165.987C851.967 171.886 856.934 176.475 863.156 179.752C869.487 183.029 876.637 184.668 884.606 184.668C892.575 184.668 899.67 183.029 905.892 179.752C912.223 176.475 917.19 171.886 920.792 165.987C924.504 159.979 926.359 153.097 926.359 145.341C926.359 137.475 924.504 130.593 920.792 124.694C917.19 118.795 912.223 114.207 905.892 110.929C899.67 107.652 892.575 106.014 884.606 106.014C876.637 106.014 869.487 107.652 863.156 110.929C856.934 114.207 851.967 118.795 848.256 124.694C844.654 130.593 842.853 137.475 842.853 145.341ZM864.466 145.341C864.466 141.08 865.339 137.311 867.086 134.034C868.942 130.757 871.398 128.244 874.454 126.496C877.511 124.749 880.895 123.875 884.606 123.875C888.317 123.875 891.701 124.749 894.758 126.496C897.814 128.244 900.216 130.757 901.962 134.034C903.818 137.311 904.746 141.08 904.746 145.341C904.746 149.601 903.818 153.37 901.962 156.647C900.216 159.815 897.814 162.328 894.758 164.185C891.701 165.933 888.317 166.807 884.606 166.807C880.895 166.807 877.511 165.933 874.454 164.185C871.398 162.328 868.942 159.815 867.086 156.647C865.339 153.37 864.466 149.601 864.466 145.341Z" fill="black"/>
<path d="M994.176 137.147V183.029H1016.12V134.853C1016.12 125.786 1013.93 118.74 1009.57 113.715C1005.2 108.581 998.542 106.014 989.591 106.014C984.242 106.014 979.657 107.161 975.837 109.455C972.125 111.64 969.123 114.862 966.831 119.123V107.652H945.545V183.029H966.831V137.147C966.831 133.979 967.432 131.248 968.632 128.954C969.833 126.66 971.58 124.912 973.872 123.711C976.164 122.4 978.784 121.744 981.731 121.744C986.098 121.744 989.263 123.055 991.228 125.677C993.193 128.299 994.176 132.122 994.176 137.147Z" fill="black"/>
<path d="M1111.2 107.652H1089.1L1065.35 167.298L1075.83 167.626L1051.6 107.652H1028.02L1059.3 175.491L1040.3 219.079H1062.08L1111.2 107.652Z" fill="black"/>
<defs>
<linearGradient id="paint0_linear_947_3972" x1="139.645" y1="98.1377" x2="38.7663" y2="97.2495" gradientUnits="userSpaceOnUse">
<stop stop-color="#15A6FE"/>
<stop offset="1" stop-color="#03EAB8"/>
</linearGradient>
<linearGradient id="paint1_linear_947_3972" x1="143.457" y1="197.147" x2="227.106" y2="197.378" gradientUnits="userSpaceOnUse">
<stop offset="0.00459486" stop-color="#FF7787"/>
<stop offset="0.488312" stop-color="#CC64FF"/>
<stop offset="1" stop-color="#5790FF"/>
</linearGradient>
<linearGradient id="paint2_linear_947_3972" x1="216.402" y1="77.5346" x2="240.267" y2="131.24" gradientUnits="userSpaceOnUse">
<stop offset="0.575351" stop-color="#1B52F3"/>
<stop offset="1" stop-color="#B654FC"/>
</linearGradient>
<linearGradient id="paint3_linear_947_3972" x1="257.248" y1="53.2573" x2="33.0005" y2="185.459" gradientUnits="userSpaceOnUse">
<stop stop-color="#0065FC"/>
<stop offset="1" stop-color="#08DFFC"/>
</linearGradient>
<clipPath id="clip0_947_3972">
<rect width="280" height="280" fill="white" transform="translate(0 0.000244141)"/>
</clipPath>
</defs>
</svg>
