<svg width="281" height="280" viewBox="0 0 281 280" fill="none" xmlns="http://www.w3.org/2000/svg">
<path d="M40.4907 128.373V105.271C40.4907 90.9807 48.1138 77.7762 60.4888 70.6306L140.504 24.428V47.5394C140.504 61.8303 132.88 75.0357 120.503 82.1809L40.4907 128.373Z" fill="url(#paint0_linear_947_3997)"/>
<path d="M140.488 255.573V232.47C140.488 218.18 148.111 204.976 160.486 197.83L240.501 151.627V174.739C240.501 189.03 232.877 202.235 220.5 209.38L140.488 255.573Z" fill="url(#paint1_linear_947_3997)"/>
<path d="M200.49 157.045L220.492 145.499C232.865 138.356 240.489 125.157 240.495 110.87L240.513 59.1086L220.495 70.6661C208.12 77.8106 200.497 91.0138 200.495 105.303L200.49 157.045Z" fill="url(#paint2_linear_947_3997)"/>
<path d="M240.488 82.2971V59.1858L80.4934 151.511V122.936L60.4544 134.533C48.0985 141.684 40.4902 154.877 40.4902 169.153V220.828L220.483 116.941C232.862 109.796 240.488 96.5896 240.488 82.2971Z" fill="url(#paint3_linear_947_3997)"/>
<defs>
<linearGradient id="paint0_linear_947_3997" x1="140.504" y1="98.1375" x2="39.6247" y2="97.2492" gradientUnits="userSpaceOnUse">
<stop stop-color="#15A6FE"/>
<stop offset="1" stop-color="#03EAB8"/>
</linearGradient>
<linearGradient id="paint1_linear_947_3997" x1="144.316" y1="197.146" x2="227.965" y2="197.377" gradientUnits="userSpaceOnUse">
<stop offset="0.00459486" stop-color="#FF7787"/>
<stop offset="0.488312" stop-color="#CC64FF"/>
<stop offset="1" stop-color="#5790FF"/>
</linearGradient>
<linearGradient id="paint2_linear_947_3997" x1="217.261" y1="77.5344" x2="241.126" y2="131.24" gradientUnits="userSpaceOnUse">
<stop offset="0.575351" stop-color="#1B52F3"/>
<stop offset="1" stop-color="#B654FC"/>
</linearGradient>
<linearGradient id="paint3_linear_947_3997" x1="258.106" y1="53.257" x2="33.8589" y2="185.458" gradientUnits="userSpaceOnUse">
<stop stop-color="#0065FC"/>
<stop offset="1" stop-color="#08DFFC"/>
</linearGradient>
</defs>
</svg>
